<?xml version="1.0" encoding="UTF-8"?>
<svg id="_レイヤー_2" data-name="レイヤー 2" xmlns="http://www.w3.org/2000/svg" viewBox="0 0 416.67 132.53">
  <defs>
    <style>
      .cls-1, .cls-2 {
        fill: #fff;
      }

      .cls-2 {
        font-family: KozGoPr6N-Regular-90ms-RKSJ-H, 'Kozuka Gothic Pr6N';
        font-size: 28px;
      }

      .cls-3 {
        stroke: #a6a6a6;
        stroke-miterlimit: 10;
        stroke-width: 2px;
      }
    </style>
  </defs>
  <g id="Layer_2" data-name="Layer 2">
    <rect class="cls-3" x="1" y="1" width="414.67" height="130.53" rx="24" ry="24"/>
    <path id="Steam_white" class="cls-1" d="M63.87,27.79c-9.66,0-18.97,3.64-26.07,10.19-7.1,6.55-11.47,15.54-12.25,25.17l20.61,8.53c1.8-1.24,3.94-1.9,6.13-1.89h.61l9.16-13.28v-.19c.01-2.87.87-5.67,2.47-8.04,1.6-2.38,3.87-4.23,6.52-5.32,2.65-1.09,5.57-1.37,8.38-.8s5.39,1.95,7.41,3.98c2.02,2.03,3.4,4.62,3.95,7.43.56,2.81.27,5.73-.83,8.37-1.1,2.65-2.96,4.91-5.34,6.5-2.38,1.59-5.19,2.44-8.05,2.44h-.33l-13.04,9.32v.51c0,2.7-.99,5.31-2.81,7.32-1.81,2.01-4.31,3.27-7,3.53-2.69.27-5.38-.48-7.56-2.08-2.17-1.61-3.67-3.97-4.19-6.62l-14.73-6.08c1.95,6.88,5.78,13.08,11.06,17.91,5.28,4.82,11.8,8.08,18.83,9.4,7.03,1.32,14.29.65,20.96-1.93,6.67-2.58,12.49-6.97,16.8-12.67,4.31-5.71,6.95-12.5,7.61-19.62.66-7.12-.67-14.29-3.86-20.69-3.19-6.4-8.1-11.79-14.18-15.56-6.08-3.77-13.09-5.76-20.25-5.76l-.03-.05ZM49.66,86.13l-4.73-1.96c.69,1.43,1.77,2.63,3.13,3.45,1.35.82,2.92,1.23,4.5,1.18,1.58-.05,3.12-.56,4.41-1.47,1.3-.91,2.3-2.18,2.89-3.65.59-1.47.74-3.08.43-4.63-.31-1.55-1.07-2.98-2.17-4.11-1.11-1.13-2.52-1.92-4.07-2.26-1.55-.34-3.16-.23-4.64.33l4.88,2.02c1.47.61,2.64,1.79,3.25,3.26.61,1.47.6,3.13,0,4.6-.61,1.47-1.79,2.64-3.26,3.25-1.47.61-3.13.6-4.6,0ZM84.64,50.96c1.06,1.59,1.63,3.46,1.63,5.37,0,2.56-1.02,5.01-2.83,6.82-1.81,1.81-4.26,2.83-6.82,2.83-1.91,0-3.78-.56-5.37-1.63-1.59-1.06-2.83-2.57-3.56-4.34-.73-1.77-.92-3.71-.55-5.59.37-1.88,1.29-3.6,2.65-4.95,1.35-1.35,3.07-2.27,4.95-2.65,1.88-.37,3.82-.18,5.59.55,1.77.73,3.28,1.97,4.34,3.56ZM70.58,52.3c-.8,1.19-1.22,2.6-1.22,4.03l-.04-.02c0,.96.19,1.91.55,2.79.37.89.9,1.69,1.58,2.37.68.68,1.48,1.21,2.37,1.57.89.36,1.84.55,2.79.54,1.44,0,2.84-.43,4.03-1.22,1.19-.8,2.12-1.93,2.67-3.26s.69-2.79.41-4.19c-.28-1.41-.97-2.7-1.99-3.72-1.01-1.01-2.31-1.71-3.72-1.99-1.41-.28-2.87-.14-4.19.41-1.33.55-2.46,1.48-3.26,2.67ZM143.37,54.1l-2.61,4.53c-2.08-1.4-4.52-2.17-7.02-2.22-2.69,0-4.35,1.1-4.35,3.09s2.11,2.76,5.42,3.89c.6.2,1.24.42,1.91.66,4.71,1.67,7.41,3.62,7.41,7.94,0,5.9-4.64,9.21-11.3,9.21-3.57.01-7.08-.91-10.19-2.67l1.88-5.02c2.47,1.3,5.21,2.01,8,2.06,3.52,0,5.21-1.29,5.21-3.22,0-2.04-2.19-2.75-5.78-3.93-.29-.09-.58-.19-.88-.29-4.7-1.56-7.95-3.62-7.95-8.4,0-5.38,4.35-8.47,10.52-8.47,3.46-.1,6.86.89,9.72,2.83ZM163.51,80.73v-23.76h8.79v-5.21h-23.66v5.21h8.79v23.76h6.08ZM185.07,56.97v6.53h11.61v5.21h-11.61v6.8h13.47v5.21h-19.54v-28.97h19.54v5.21h-13.47ZM210.16,80.72l1.91-5.62h11.31s1.96,5.61,1.96,5.61h6.57l-11.17-28.96h-6.08l-10.86,28.97h6.36ZM213.72,70.26l3.95-11.59,4.04,11.59h-7.99ZM263.06,62.96l-7.93,16.92h-3.42l-7.82-16.77v17.62h-5.81v-28.97h5.8l9.73,20.9,9.41-20.9h5.85v28.96h-5.8v-17.75ZM279.91,57.64c.44-.66.68-1.44.68-2.23.02-.53-.07-1.06-.27-1.56s-.49-.94-.87-1.32c-.38-.38-.82-.67-1.32-.87-.49-.2-1.02-.29-1.55-.28-.79,0-1.57.23-2.23.67-.66.44-1.18,1.07-1.48,1.8-.3.73-.39,1.54-.23,2.32.15.78.54,1.5,1.09,2.06.56.56,1.27.95,2.05,1.1.78.16,1.59.08,2.32-.22.74-.3,1.36-.82,1.81-1.47ZM273.82,57.26c-.37-.54-.57-1.19-.58-1.84-.02-.45.05-.89.21-1.3.16-.42.4-.79.72-1.11s.69-.57,1.1-.73c.41-.16.86-.24,1.3-.23.66,0,1.3.19,1.85.56.55.37.98.88,1.23,1.49.25.61.32,1.28.2,1.92-.13.65-.44,1.24-.9,1.71-.46.47-1.05.79-1.7.92-.64.13-1.31.07-1.93-.18-.61-.25-1.13-.67-1.51-1.21ZM278.03,54.5c0-.59-.35-1.15-1.38-1.15h-1.42s0,3.98,0,3.98h.64v-1.55h.81l.78,1.55h.79l-.93-1.74c.21-.09.39-.25.52-.44.13-.19.19-.42.19-.65ZM276.58,55.21h-.69l-.02-1.25h.7c.54,0,.73.23.73.6,0,.09-.02.18-.06.27-.04.08-.09.16-.16.22-.07.06-.15.11-.24.14-.09.03-.18.04-.27.03Z"/>
    <text class="cls-2" transform="translate(304.16 77.84)"><tspan x="0" y="0">で入手</tspan></text>
  </g>
</svg>